<?xml version="1.0" encoding="UTF-8"?>
<svg id="Layer_2" data-name="Layer 2" xmlns="http://www.w3.org/2000/svg" width="79.94" height="90.54" viewBox="0 0 79.94 90.54">
  <defs>
    <style>
      .cls-1 {
        stroke-width: 0px;
      }
    </style>
  </defs>
  <g id="Layer_2-2" data-name="Layer 2">
    <path class="cls-1" d="M46.51,45.8c-3.62,2.21-6.01,4.81-7.8,4.45-1.93-.39-4.68-3.66-4.53-5.48.14-1.8,3.41-4.6,5.37-4.65,1.85-.05,3.77,2.91,6.97,5.68Z"/>
    <path class="cls-1" d="M33.33,38.49c-2.87,1.92-4.93,4.29-6.26,3.94-1.78-.48-2.99-3.07-4.44-4.75,1.61-1.36,3.2-3.75,4.83-3.77,1.59-.02,3.21,2.38,5.87,4.58Z"/>
    <path class="cls-1" d="M51.12,31.79c2.06,2.87,4.48,4.83,4.18,6.21-.39,1.81-2.92,3.16-4.53,4.71-1.41-1.58-3.84-3.09-3.95-4.74-.1-1.6,2.2-3.35,4.29-6.18Z"/>
    <path class="cls-1" d="M45.54,31.05c-2.99,2.14-4.77,4.4-6.54,4.38-1.49-.01-4.3-2.87-4.11-4.1.27-1.75,2.56-4.08,4.34-4.44,1.39-.28,3.31,2.06,6.31,4.16Z"/>
    <path class="cls-1" d="M26.99,45.88c2.1,2.77,4.4,4.49,4.34,6.12-.06,1.61-2.51,3.13-3.91,4.69-1.61-1.51-4.19-2.83-4.53-4.59-.28-1.43,2.11-3.39,4.1-6.23Z"/>
    <path class="cls-1" d="M57.32,52.03c-2.69,2.1-4.35,4.42-5.94,4.37-1.65-.06-3.21-2.41-4.82-3.75,1.48-1.69,2.72-4.3,4.51-4.75,1.34-.33,3.38,2.13,6.24,4.14Z"/>
    <path class="cls-1" d="M45.36,59.49c-2.82,1.91-4.64,4.1-6.22,3.94-1.64-.17-3.05-2.61-4.55-4.06,1.58-1.59,2.99-4.13,4.81-4.46,1.35-.25,3.22,2.36,5.97,4.59Z"/>
    <path class="cls-1" d="M44.57,16.88c-2.48,1.91-4.09,4.01-5.18,3.77-1.55-.35-3.48-2.27-3.76-3.79-.18-1.02,2.1-3.37,3.49-3.54,1.29-.16,2.85,1.76,5.45,3.57Z"/>
    <path class="cls-1" d="M20.66,59.36c-2.6,1.82-4.13,3.74-5.43,3.59-1.39-.16-3.72-2.48-3.54-3.47.29-1.53,2.18-3.47,3.72-3.83,1.09-.25,2.72,1.83,5.24,3.72Z"/>
    <path class="cls-1" d="M68.57,59.11c-2.54,1.93-3.98,3.89-5.29,3.8-1.4-.1-3.87-2.33-3.71-3.25.27-1.58,2.03-3.59,3.56-4.03,1.07-.31,2.81,1.7,5.44,3.49Z"/>
    <path class="cls-1" d="M26.87,71.93c-1.64-2.67-3.55-4.41-3.26-5.63.36-1.51,2.54-2.59,3.93-3.86,1.1,1.39,3.04,2.77,3.07,4.18.03,1.39-1.88,2.82-3.74,5.31Z"/>
    <path class="cls-1" d="M51.21,71.96c-1.83-2.56-3.7-4.03-3.65-5.42.06-1.41,2.02-2.74,3.15-4.11,1.36,1.3,3.49,2.43,3.82,3.96.27,1.23-1.64,2.93-3.33,5.58Z"/>
    <path class="cls-1" d="M39.26,79.02c-1.84-2.59-3.72-4.06-3.66-5.46.06-1.43,2.02-2.77,3.15-4.15,1.36,1.31,3.49,2.44,3.83,3.97.27,1.23-1.63,2.94-3.32,5.63Z"/>
    <path class="cls-1" d="M68.64,45.02c-2.6,1.94-4.2,3.99-5.31,3.75-1.54-.33-2.72-2.37-4.05-3.68,1.25-1.24,2.39-3.29,3.78-3.48,1.3-.17,2.86,1.64,5.58,3.41Z"/>
    <path class="cls-1" d="M20.76,45.12c-2.64,1.89-4.28,3.92-5.38,3.66-1.54-.36-2.67-2.43-3.98-3.77,1.27-1.21,2.45-3.24,3.83-3.4,1.3-.15,2.83,1.69,5.52,3.51Z"/>
    <path class="cls-1" d="M32.66,24.24c-2.66,1.77-4.4,3.76-5.48,3.45-1.52-.43-3.28-2.45-3.53-4.01-.15-.94,2.31-3.15,3.7-3.24,1.31-.08,2.75,1.86,5.31,3.8Z"/>
    <path class="cls-1" d="M51.25,18.41c1.71,2.71,3.61,4.42,3.32,5.6-.37,1.52-2.5,2.61-3.87,3.89-1.12-1.36-3.06-2.67-3.13-4.08-.07-1.35,1.8-2.81,3.68-5.41Z"/>
    <path class="cls-1" d="M14.96,36.87c-1.75-2.83-3.49-4.4-3.32-5.73.18-1.41,2.17-2.59,3.38-3.88,1.29,1.35,3.33,2.56,3.64,4.11.23,1.16-1.76,2.77-3.69,5.5Z"/>
    <path class="cls-1" d="M68.61,30.78c-2.55,2.01-4.12,4.11-5.22,3.89-1.54-.3-2.75-2.34-4.1-3.63,1.22-1.26,2.32-3.32,3.71-3.54,1.28-.2,2.88,1.58,5.61,3.28Z"/>
    <path class="cls-1" d="M79.28,37.96c-1.75,1.52-2.86,3.24-3.99,3.25-1.12.01-3.32-1.89-3.18-2.6.27-1.39,1.63-3.12,2.92-3.55.82-.28,2.35,1.53,4.24,2.9Z"/>
    <path class="cls-1" d="M7.44,38.19c-1.85,1.45-3.3,3.31-4.12,3.06-1.33-.4-2.24-2.17-3.33-3.36,1.11-.99,2.19-2.7,3.35-2.76,1.09-.06,2.28,1.62,4.09,3.06Z"/>
    <path class="cls-1" d="M3.01,28.47c-1.37-1.99-3.09-3.46-2.83-4.35.39-1.32,2.17-2.23,3.37-3.32.92,1.17,2.52,2.32,2.55,3.51.03,1.12-1.61,2.28-3.09,4.15Z"/>
    <path class="cls-1" d="M74.83,19.7c1.49,1.83,3.3,3.13,3.14,4.09-.23,1.31-1.96,2.36-3.04,3.53-1.03-1.07-2.77-2.07-2.88-3.23-.1-1.14,1.45-2.42,2.78-4.39Z"/>
    <path class="cls-1" d="M3.12,56.64c-1.39-1.92-3.14-3.33-2.92-4.3.29-1.28,2.12-2.22,3.28-3.3.94,1.13,2.61,2.25,2.63,3.4.03,1.15-1.59,2.34-3,4.19Z"/>
    <path class="cls-1" d="M78.49,53.2c-1.26.78-2.92,2.46-3.68,2.13-1.26-.55-1.94-2.42-2.87-3.73,1.2-.83,2.36-2.25,3.61-2.33,1.43-.09,2.92,1.03,4.39,1.62-.48.77-.97,1.54-1.45,2.31Z"/>
    <path class="cls-1" d="M19.41,16.95c-1.8,1.43-2.96,3.05-4.05,3.01-1.16-.04-2.26-1.67-3.38-2.6,1.06-1.21,1.94-2.98,3.25-3.41.8-.26,2.28,1.56,4.18,3Z"/>
    <path class="cls-1" d="M63.26,12.65c1.32,1.98,3.01,3.45,2.75,4.38-.35,1.25-2.2,2.08-3.4,3.09-.9-1.13-2.54-2.29-2.51-3.4.03-1.16,1.67-2.27,3.16-4.08Z"/>
    <path class="cls-1" d="M55.41,9.76c-1.88,1.52-3.06,3.2-4.14,3.15-1.17-.06-3.14-1.74-3.14-2.72,0-1.13,1.62-2.99,2.78-3.2,1.06-.19,2.43,1.41,4.51,2.77Z"/>
    <path class="cls-1" d="M43.43,3.37c-2.08,1.22-3.49,2.7-4.57,2.49-1.14-.21-1.97-2.04-2.93-3.17C37.07,1.72,38.21,0,39.35,0c1.12,0,2.24,1.75,4.08,3.37Z"/>
    <path class="cls-1" d="M7.54,66.39c-2.04,1.45-3.35,3.1-4.42,2.96-1.16-.15-2.87-1.96-2.9-3.09-.03-.99,1.87-2.74,3.04-2.84,1.08-.1,2.33,1.53,4.28,2.97Z"/>
    <path class="cls-1" d="M74.71,70.77c-1.3-2.13-2.82-3.51-2.64-4.64.17-1.1,2.11-2.74,3.17-2.67,1.04.07,2.71,1.99,2.72,3.11.01,1.14-1.67,2.29-3.24,4.2Z"/>
    <path class="cls-1" d="M27.23,5.54c1.35,2.07,2.89,3.39,2.75,4.52-.13,1.12-1.93,2.05-3,3.07-1.02-1.07-2.79-2.11-2.84-3.23-.05-1.14,1.59-2.36,3.09-4.35Z"/>
    <path class="cls-1" d="M14.86,77.78c-1.32-2.13-2.85-3.51-2.68-4.63.17-1.12,2.08-2.76,3.17-2.71,1.01.04,2.68,1.99,2.7,3.12.02,1.13-1.64,2.3-3.18,4.22Z"/>
    <path class="cls-1" d="M62.78,68.95c1.58,1.92,3.29,3.11,3.22,4.17-.08,1.18-1.78,2.26-2.78,3.39-1.11-1-2.93-1.87-3.13-3.02-.18-1.07,1.36-2.44,2.69-4.54Z"/>
    <path class="cls-1" d="M27.19,84.77c-1.49-1.99-3.13-3.23-3.05-4.34.08-1.12,1.83-2.93,2.89-2.96,1.03-.03,2.83,1.74,2.97,2.87.13,1.1-1.43,2.4-2.81,4.43Z"/>
    <path class="cls-1" d="M51.1,75.98c1.43,2.03,3.03,3.31,2.9,4.39-.14,1.15-1.91,2.12-2.97,3.16-1.04-1.06-2.79-2.05-2.91-3.21-.11-1.09,1.52-2.34,2.97-4.34Z"/>
    <path class="cls-1" d="M39.07,83.01c1.44,1.99,3.06,3.26,2.95,4.35-.11,1.15-1.88,2.13-2.93,3.19-1.05-1.05-2.82-2.03-2.96-3.19-.12-1.08,1.5-2.36,2.93-4.35Z"/>
  </g>
</svg>