<?xml version="1.0" encoding="UTF-8"?><svg id="Layer_2" xmlns="http://www.w3.org/2000/svg" width="348.71" height="350" xmlns:xlink="http://www.w3.org/1999/xlink" viewBox="0 0 348.71 350"><defs><style>.cls-1{stroke-width:13px;}.cls-1,.cls-2{fill:none;stroke:#21212b;stroke-miterlimit:10;}.cls-3{filter:url(#drop-shadow-1);}.cls-2{stroke-linecap:round;stroke-width:16px;}.cls-4{fill:#ccff29;}.cls-4,.cls-5{stroke-width:0px;}.cls-5{fill:#21212b;opacity:.56;}</style><filter id="drop-shadow-1" filterUnits="userSpaceOnUse"><feOffset dx="3" dy="3"/><feGaussianBlur result="blur" stdDeviation="2"/><feFlood flood-color="#000" flood-opacity=".75"/><feComposite in2="blur" operator="in"/><feComposite in="SourceGraphic"/></filter></defs><g id="Layer_2-2"><path class="cls-5" d="M20.47,11.29h281.82c25.62,0,46.41,20.8,46.41,46.41v281.82c0,5.78-4.69,10.47-10.47,10.47H67.91c-31.96,0-57.91-25.95-57.91-57.91V21.76c0-5.78,4.69-10.47,10.47-10.47Z"/><path class="cls-4" d="M10.47,0h281.82c25.62,0,46.41,20.8,46.41,46.41v281.82c0,5.78-4.69,10.47-10.47,10.47H57.91c-31.96,0-57.91-25.95-57.91-57.91V10.47C0,4.69,4.69,0,10.47,0Z"/><g class="cls-3"><circle class="cls-2" cx="169.35" cy="121.4" r="65.91"/><path class="cls-2" d="M142.06,187.26h-1.03c-19.91,0-36.9,15.48-37.57,35.37-.69,20.8,15.96,37.88,36.61,37.88h95.19"/><line class="cls-2" x1="140.07" y1="187.26" x2="170.4" y2="187.26"/><circle class="cls-1" cx="169.35" cy="121.4" r="20.73"/></g></g></svg>